<?xml version="1.0" standalone="no"?><!-- Generator: Gravit.io --><svg xmlns="http://www.w3.org/2000/svg" xmlns:xlink="http://www.w3.org/1999/xlink" style="isolation:isolate" viewBox="0 0 400 400" width="400" height="400"><defs><clipPath id="_clipPath_ciMRYxABGT8puPzkQfhHJK81r3bjJQBS"><rect width="400" height="400"/></clipPath></defs><g clip-path="url(#_clipPath_ciMRYxABGT8puPzkQfhHJK81r3bjJQBS)"><g id="bubolchart"><g id="Group"><path d=" M 144.217 165.091 C 144.217 159.854 149.385 155.603 155.751 155.603 C 162.116 155.603 167.284 159.854 167.284 165.091 C 167.284 170.327 162.116 174.579 155.751 174.579 C 149.385 174.579 144.217 170.327 144.217 165.091 Z " fill="rgb(49,130,189)"/><g transform="matrix(1.26,0,0,1.037,124.361,157.119)"><text transform="matrix(1,0,0,1,0,10.688)" style="font-family:&quot;Open Sans&quot;;font-weight:400;font-size:10px;font-style:normal;fill:#000000;stroke:none;">Marvdasht</text></g></g><g id="Group"><path d=" M 169.328 165.091 C 169.328 160.977 173.387 157.637 178.388 157.637 C 183.388 157.637 187.448 160.977 187.448 165.091 C 187.448 169.204 183.388 172.544 178.388 172.544 C 173.387 172.544 169.328 169.204 169.328 165.091 Z " fill="rgb(49,130,189)"/><g transform="matrix(1.26,0,0,1.037,161.486,157.119)"><text transform="matrix(1,0,0,1,0,10.688)" style="font-family:&quot;Open Sans&quot;;font-weight:400;font-size:10px;font-style:normal;fill:#000000;stroke:none;">Sadra</text></g></g><g id="Group"><path d=" M 161.943 178.184 C 161.943 174.884 165.2 172.205 169.211 172.205 C 173.223 172.205 176.48 174.884 176.48 178.184 C 176.48 181.484 173.223 184.163 169.211 184.163 C 165.2 184.163 161.943 181.484 161.943 178.184 Z " fill="rgb(49,130,189)"/><g transform="matrix(1.26,0,0,1.037,150.46,170.212)"><text transform="matrix(1,0,0,1,0,10.688)" style="font-family:&quot;Open Sans&quot;;font-weight:400;font-size:10px;font-style:normal;fill:#000000;stroke:none;">Abade</text></g></g><g id="Group"><path d=" M 159.552 149.385 C 159.552 144.866 164.012 141.198 169.505 141.198 C 174.998 141.198 179.457 144.866 179.457 149.385 C 179.457 153.904 174.998 157.573 169.505 157.573 C 164.012 157.573 159.552 153.904 159.552 149.385 Z " fill="rgb(107,174,214)"/><g transform="matrix(1.26,0,0,1.037,156.236,141.413)"><text transform="matrix(1,0,0,1,0,10.688)" style="font-family:&quot;Open Sans&quot;;font-weight:400;font-size:10px;font-style:normal;fill:#000000;stroke:none;">Fasa</text></g></g><g id="Group"><path d=" M 139.162 185.037 C 139.162 179.929 144.203 175.782 150.413 175.782 C 156.622 175.782 161.663 179.929 161.663 185.037 C 161.663 190.145 156.622 194.292 150.413 194.292 C 144.203 194.292 139.162 190.145 139.162 185.037 Z " fill="rgb(107,174,214)"/><g transform="matrix(1.26,0,0,1.037,129.116,177.065)"><text transform="matrix(1,0,0,1,0.781,10.688)" style="font-family:&quot;Open Sans&quot;;font-weight:400;font-size:10px;font-style:normal;fill:#000000;stroke:none;">Jahrom</text></g></g><g id="Group"><path d=" M 142.651 148.433 C 142.651 145.052 145.987 142.307 150.097 142.307 C 154.206 142.307 157.543 145.052 157.543 148.433 C 157.543 151.814 154.206 154.559 150.097 154.559 C 145.987 154.559 142.651 151.814 142.651 148.433 Z " fill="rgb(107,174,214)"/><g transform="matrix(1.26,0,0,1.037,140.749,140.461)"><text transform="matrix(1,0,0,1,0,10.688)" style="font-family:&quot;Open Sans&quot;;font-weight:400;font-size:10px;font-style:normal;fill:#000000;stroke:none;">Lar</text></g></g><g id="Group"><path d=" M 174.355 194.052 C 174.355 177.069 191.115 163.282 211.759 163.282 C 232.402 163.282 249.162 177.069 249.162 194.052 C 249.162 211.034 232.402 224.822 211.759 224.822 C 191.115 224.822 174.355 211.034 174.355 194.052 Z " fill="rgb(158,202,225)"/><g transform="matrix(1.26,0,0,1.037,193.813,186.08)"><text transform="matrix(1,0,0,1,0,10.688)" style="font-family:&quot;Open Sans&quot;;font-weight:400;font-size:10px;font-style:normal;fill:#000000;stroke:none;">Shiraz</text></g></g><g id="Group"><path d=" M 174.305 127.259 C 174.305 108.251 193.064 92.819 216.169 92.819 C 239.274 92.819 258.033 108.251 258.033 127.259 C 258.033 146.267 239.274 161.699 216.169 161.699 C 193.064 161.699 174.305 146.267 174.305 127.259 Z " fill="rgb(198,219,239)"/><g transform="matrix(1.26,0,0,1.037,194.525,119.287)"><text transform="matrix(1,0,0,1,0,10.688)" style="font-family:&quot;Open Sans&quot;;font-weight:400;font-size:10px;font-style:normal;fill:#000000;stroke:none;">Isfahan</text></g></g><g id="Group"><path d=" M 114.092 170.896 C 114.092 164.316 120.586 158.974 128.584 158.974 C 136.582 158.974 143.075 164.316 143.075 170.896 C 143.075 177.475 136.582 182.817 128.584 182.817 C 120.586 182.817 114.092 177.475 114.092 170.896 Z " fill="rgb(230,85,13)"/><g transform="matrix(1.26,0,0,1.037,113.977,157.74)"><text transform="matrix(1,0,0,1,0.43,10.688)" style="font-family:&quot;Open Sans&quot;;font-weight:400;font-size:10px;font-style:normal;fill:#000000;stroke:none;">najaf</text></g><g transform="matrix(1.26,0,0,1.037,113.368,168.108)"><text transform="matrix(1,0,0,1,0,10.688)" style="font-family:&quot;Open Sans&quot;;font-weight:400;font-size:10px;font-style:normal;fill:#000000;stroke:none;">Abad</text></g></g><g id="Group"><path d=" M 119.642 148.705 C 119.642 143.944 124.34 140.08 130.126 140.08 C 135.912 140.08 140.61 143.944 140.61 148.705 C 140.61 153.465 135.912 157.329 130.126 157.329 C 124.34 157.329 119.642 153.465 119.642 148.705 Z " fill="rgb(230,85,13)"/><g transform="matrix(1.26,0,0,1.037,106.734,140.733)"><text transform="matrix(1,0,0,1,0,10.688)" style="font-family:&quot;Open Sans&quot;;font-weight:400;font-size:10px;font-style:normal;fill:#000000;stroke:none;">Shareza</text></g></g><g id="Group"><path d=" M 156.785 197.92 C 156.785 194.341 160.316 191.436 164.665 191.436 C 169.015 191.436 172.546 194.341 172.546 197.92 C 172.546 201.498 169.015 204.403 164.665 204.403 C 160.316 204.403 156.785 201.498 156.785 197.92 Z " fill="rgb(230,85,13)"/><g transform="matrix(1.26,0,0,1.037,134.882,189.948)"><text transform="matrix(1,0,0,1,0,10.688)" style="font-family:&quot;Open Sans&quot;;font-weight:400;font-size:10px;font-style:normal;fill:#000000;stroke:none;">Mobarake</text></g></g><g id="Group"><path d=" M 139.299 127.585 C 139.299 120.102 146.684 114.026 155.781 114.026 C 164.877 114.026 172.263 120.102 172.263 127.585 C 172.263 135.069 164.877 141.144 155.781 141.144 C 146.684 141.144 139.299 135.069 139.299 127.585 Z " fill="rgb(253,141,60)"/><g transform="matrix(1.26,0,0,1.037,134.161,119.613)"><text transform="matrix(1,0,0,1,0,10.688)" style="font-family:&quot;Open Sans&quot;;font-weight:400;font-size:10px;font-style:normal;fill:#000000;stroke:none;">Kashan</text></g></g><g id="Group"><path d=" M 123.649 190.378 C 123.649 187.081 126.902 184.404 130.91 184.404 C 134.917 184.404 138.171 187.081 138.171 190.378 C 138.171 193.674 134.917 196.351 130.91 196.351 C 126.902 196.351 123.649 193.674 123.649 190.378 Z " fill="rgb(253,141,60)"/><g transform="matrix(1.26,0,0,1.037,96.019,182.406)"><text transform="matrix(1,0,0,1,0,10.688)" style="font-family:&quot;Open Sans&quot;;font-weight:400;font-size:10px;font-style:normal;fill:#000000;stroke:none;">Golpayegan</text></g></g><g id="Group"><path d=" M 112.414 128.634 C 112.414 122.989 117.985 118.406 124.848 118.406 C 131.71 118.406 137.281 122.989 137.281 128.634 C 137.281 134.28 131.71 138.863 124.848 138.863 C 117.985 138.863 112.414 134.28 112.414 128.634 Z " fill="rgb(253,141,60)"/><g transform="matrix(1.26,0,0,1.037,91.735,120.663)"><text transform="matrix(1,0,0,1,0,10.688)" style="font-family:&quot;Open Sans&quot;;font-weight:400;font-size:10px;font-style:normal;fill:#000000;stroke:none;">Shahinsahr</text></g></g><g id="Group"><path d=" M 118.471 214.844 C 118.471 204.898 128.287 196.823 140.377 196.823 C 152.467 196.823 162.283 204.898 162.283 214.844 C 162.283 224.79 152.467 232.865 140.377 232.865 C 128.287 232.865 118.471 224.79 118.471 214.844 Z " fill="rgb(253,174,107)"/><g transform="matrix(1.26,0,0,1.037,117.726,206.872)"><text transform="matrix(1,0,0,1,0,10.688)" style="font-family:&quot;Open Sans&quot;;font-weight:400;font-size:10px;font-style:normal;fill:#000000;stroke:none;">kerman</text></g></g><g id="Group"><path d=" M 95.046 155.509 C 95.046 150.063 100.421 145.641 107.041 145.641 C 113.661 145.641 119.035 150.063 119.035 155.509 C 119.035 160.955 113.661 165.376 107.041 165.376 C 100.421 165.376 95.046 160.955 95.046 155.509 Z " fill="rgb(253,174,107)"/><g transform="matrix(1.26,0,0,1.037,78.159,147.537)"><text transform="matrix(1,0,0,1,0,10.688)" style="font-family:&quot;Open Sans&quot;;font-weight:400;font-size:10px;font-style:normal;fill:#000000;stroke:none;">Rafsanjan</text></g></g><g id="Group"><path d=" M 164.301 213.804 C 164.301 210.479 167.582 207.78 171.623 207.78 C 175.664 207.78 178.945 210.479 178.945 213.804 C 178.945 217.128 175.664 219.827 171.623 219.827 C 167.582 219.827 164.301 217.128 164.301 213.804 Z " fill="rgb(253,174,107)"/><g transform="matrix(1.26,0,0,1.037,150.714,205.832)"><text transform="matrix(1,0,0,1,0,10.688)" style="font-family:&quot;Open Sans&quot;;font-weight:400;font-size:10px;font-style:normal;fill:#000000;stroke:none;">Zarand</text></g></g><g id="Group"><path d=" M 63.733 194.169 C 63.733 180.968 76.761 170.25 92.808 170.25 C 108.855 170.25 121.883 180.968 121.883 194.169 C 121.883 207.37 108.855 218.088 92.808 218.088 C 76.761 218.088 63.733 207.37 63.733 194.169 Z " fill="rgb(253,208,162)"/><g transform="matrix(1.26,0,0,1.037,55.351,186.197)"><text transform="matrix(1,0,0,1,0,10.688)" style="font-family:&quot;Open Sans&quot;;font-weight:400;font-size:10px;font-style:normal;fill:#000000;stroke:none;">Kermanshah</text></g></g><g id="Group"><path d=" M 159.924 107.693 C 159.924 103.61 163.954 100.295 168.917 100.295 C 173.88 100.295 177.91 103.61 177.91 107.693 C 177.91 111.776 173.88 115.091 168.917 115.091 C 163.954 115.091 159.924 111.776 159.924 107.693 Z " fill="rgb(253,208,162)"/><g transform="matrix(1.26,0,0,1.037,138.46,99.721)"><text transform="matrix(1,0,0,1,0,10.688)" style="font-family:&quot;Open Sans&quot;;font-weight:400;font-size:10px;font-style:normal;fill:#000000;stroke:none;">Islamabad</text></g></g><g id="Group"><path d=" M 232.956 163.958 C 232.956 161.079 235.797 158.741 239.297 158.741 C 242.797 158.741 245.638 161.079 245.638 163.958 C 245.638 166.837 242.797 169.174 239.297 169.174 C 235.797 169.174 232.956 166.837 232.956 163.958 Z " fill="rgb(253,208,162)"/><g transform="matrix(1.26,0,0,1.037,199.277,155.986)"><text transform="matrix(1,0,0,1,0,10.688)" style="font-family:&quot;Open Sans&quot;;font-weight:400;font-size:10px;font-style:normal;fill:#000000;stroke:none;">Sarpolezahab</text></g></g><g id="Group"><path d=" M 88.106 164.922 C 88.106 162.909 90.093 161.275 92.54 161.275 C 94.987 161.275 96.974 162.909 96.974 164.922 C 96.974 166.936 94.987 168.57 92.54 168.57 C 90.093 168.57 88.106 166.936 88.106 164.922 Z " fill="rgb(253,208,162)"/><g transform="matrix(1.26,0,0,1.037,56.597,156.951)"><text transform="matrix(1,0,0,1,0,10.688)" style="font-family:&quot;Open Sans&quot;;font-weight:400;font-size:10px;font-style:normal;fill:#000000;stroke:none;">Gilanegharb</text></g></g><g id="Group"><path d=" M 71.311 131.222 C 71.311 122.321 80.095 115.096 90.914 115.096 C 101.732 115.096 110.516 122.321 110.516 131.222 C 110.516 140.122 101.732 147.347 90.914 147.347 C 80.095 147.347 71.311 140.122 71.311 131.222 Z " fill="rgb(49,163,84)"/><g transform="matrix(1.26,0,0,1.037,70.977,123.25)"><text transform="matrix(1,0,0,1,0,10.688)" style="font-family:&quot;Open Sans&quot;;font-weight:400;font-size:10px;font-style:normal;fill:#000000;stroke:none;">Zanjan</text></g></g><g id="Group"><path d=" M 99.818 224.649 C 99.818 220.378 104.033 216.911 109.224 216.911 C 114.415 216.911 118.63 220.378 118.63 224.649 C 118.63 228.919 114.415 232.387 109.224 232.387 C 104.033 232.387 99.818 228.919 99.818 224.649 Z " fill="rgb(49,163,84)"/><g transform="matrix(1.26,0,0,1.037,91.429,216.677)"><text transform="matrix(1,0,0,1,0,10.688)" style="font-family:&quot;Open Sans&quot;;font-weight:400;font-size:10px;font-style:normal;fill:#000000;stroke:none;">Abhar</text></g></g><g id="Group"><path d=" M 129.509 113.792 C 129.509 110.609 132.65 108.025 136.519 108.025 C 140.389 108.025 143.53 110.609 143.53 113.792 C 143.53 116.976 140.389 119.56 136.519 119.56 C 132.65 119.56 129.509 116.976 129.509 113.792 Z " fill="rgb(49,163,84)"/><g transform="matrix(1.26,0,0,1.037,93.123,105.821)"><text transform="matrix(1,0,0,1,0,10.688)" style="font-family:&quot;Open Sans&quot;;font-weight:400;font-size:10px;font-style:normal;fill:#000000;stroke:none;">Khoramdarreh</text></g></g><g id="Group"><path d=" M 101.953 297.489 C 101.953 257.47 141.448 224.979 190.095 224.979 C 238.742 224.979 278.237 257.47 278.237 297.489 C 278.237 337.509 238.742 370 190.095 370 C 141.448 370 101.953 337.509 101.953 297.489 Z " fill="rgb(116,196,118)"/><g transform="matrix(1.26,0,0,1.037,169.26,289.518)"><text transform="matrix(1,0,0,1,0,10.688)" style="font-family:&quot;Open Sans&quot;;font-weight:400;font-size:10px;font-style:normal;fill:#000000;stroke:none;">Tehran</text></g></g><g id="Group"><path d=" M 144.789 107.283 C 144.789 104.31 147.723 101.896 151.338 101.896 C 154.953 101.896 157.887 104.31 157.887 107.283 C 157.887 110.257 154.953 112.671 151.338 112.671 C 147.723 112.671 144.789 110.257 144.789 107.283 Z " fill="rgb(161,217,155)"/><g transform="matrix(1.26,0,0,1.037,120.214,99.312)"><text transform="matrix(1,0,0,1,0,10.688)" style="font-family:&quot;Open Sans&quot;;font-weight:400;font-size:10px;font-style:normal;fill:#000000;stroke:none;">damavand</text></g></g><g id="Group"><path d=" M 132.57 101.539 C 132.57 98.824 135.249 96.62 138.549 96.62 C 141.848 96.62 144.527 98.824 144.527 101.539 C 144.527 104.253 141.848 106.457 138.549 106.457 C 135.249 106.457 132.57 104.253 132.57 101.539 Z " fill="rgb(161,217,155)"/><g transform="matrix(1.26,0,0,1.037,109.532,93.567)"><text transform="matrix(1,0,0,1,0,10.688)" style="font-family:&quot;Open Sans&quot;;font-weight:400;font-size:10px;font-style:normal;fill:#000000;stroke:none;">Firoozkph</text></g></g><g id="Group"><path d=" M 90.518 100.99 C 90.518 91.906 99.483 84.53 110.526 84.53 C 121.569 84.53 130.534 91.906 130.534 100.99 C 130.534 110.075 121.569 117.45 110.526 117.45 C 99.483 117.45 90.518 110.075 90.518 100.99 Z " fill="rgb(161,217,155)"/><g transform="matrix(1.26,0,0,1.037,76.235,93.019)"><text transform="matrix(1,0,0,1,0,10.688)" style="font-family:&quot;Open Sans&quot;;font-weight:400;font-size:10px;font-style:normal;fill:#000000;stroke:none;">Eslamshahr</text></g></g><g id="Group"><path d=" M 175.212 97.998 C 175.212 95.284 177.891 93.08 181.19 93.08 C 184.49 93.08 187.169 95.284 187.169 97.998 C 187.169 100.713 184.49 102.917 181.19 102.917 C 177.891 102.917 175.212 100.713 175.212 97.998 Z " fill="rgb(199,233,192)"/><g transform="matrix(1.26,0,0,1.037,160.011,90.026)"><text transform="matrix(1,0,0,1,0,10.688)" style="font-family:&quot;Open Sans&quot;;font-weight:400;font-size:10px;font-style:normal;fill:#000000;stroke:none;">Qeshm</text></g></g><g id="Group"><path d=" M 41.19 158.391 C 41.19 148.547 50.905 140.555 62.87 140.555 C 74.836 140.555 84.551 148.547 84.551 158.391 C 84.551 168.235 74.836 176.226 62.87 176.226 C 50.905 176.226 41.19 168.235 41.19 158.391 Z " fill="rgb(199,233,192)"/><g transform="matrix(1.26,0,0,1.037,41.476,145.235)"><text transform="matrix(1,0,0,1,0,10.688)" style="font-family:&quot;Open Sans&quot;;font-weight:400;font-size:10px;font-style:normal;fill:#000000;stroke:none;">Bandar</text></g><g transform="matrix(1.26,0,0,1.037,44.648,155.603)"><text transform="matrix(1,0,0,1,0,10.688)" style="font-family:&quot;Open Sans&quot;;font-weight:400;font-size:10px;font-style:normal;fill:#000000;stroke:none;">Abbas</text></g></g><g id="Group"><path d=" M 243.621 172.864 C 243.621 169.197 247.24 166.219 251.698 166.219 C 256.156 166.219 259.775 169.197 259.775 172.864 C 259.775 176.531 256.156 179.508 251.698 179.508 C 247.24 179.508 243.621 176.531 243.621 172.864 Z " fill="rgb(199,233,192)"/><g transform="matrix(1.26,0,0,1.037,233.18,164.892)"><text transform="matrix(1,0,0,1,0,10.688)" style="font-family:&quot;Open Sans&quot;;font-weight:400;font-size:10px;font-style:normal;fill:#000000;stroke:none;">Minab</text></g></g><g id="Group"><path d=" M 148.906 93.82 C 148.906 89.703 152.969 86.361 157.973 86.361 C 162.977 86.361 167.04 89.703 167.04 93.82 C 167.04 97.936 162.977 101.279 157.973 101.279 C 152.969 101.279 148.906 97.936 148.906 93.82 Z " fill="rgb(117,107,177)"/><g transform="matrix(1.26,0,0,1.037,137.043,85.848)"><text transform="matrix(1,0,0,1,0,10.688)" style="font-family:&quot;Open Sans&quot;;font-weight:400;font-size:10px;font-style:normal;fill:#000000;stroke:none;">Salmas</text></g></g><g id="Group"><path d=" M 252.568 153.118 C 252.568 141.474 264.06 132.021 278.214 132.021 C 292.368 132.021 303.859 141.474 303.859 153.118 C 303.859 164.762 292.368 174.216 278.214 174.216 C 264.06 174.216 252.568 164.762 252.568 153.118 Z " fill="rgb(117,107,177)"/><g transform="matrix(1.26,0,0,1.037,260.093,145.146)"><text transform="matrix(1,0,0,1,0,10.688)" style="font-family:&quot;Open Sans&quot;;font-weight:400;font-size:10px;font-style:normal;fill:#000000;stroke:none;">Urmia</text></g></g><g id="Group"><path d=" M 131.18 87.973 C 131.18 84.11 134.992 80.974 139.687 80.974 C 144.383 80.974 148.195 84.11 148.195 87.973 C 148.195 91.835 144.383 94.972 139.687 94.972 C 134.992 94.972 131.18 91.835 131.18 87.973 Z " fill="rgb(117,107,177)"/><g transform="matrix(1.26,0,0,1.037,120.173,80.001)"><text transform="matrix(1,0,0,1,0,10.688)" style="font-family:&quot;Open Sans&quot;;font-weight:400;font-size:10px;font-style:normal;fill:#000000;stroke:none;">Nqade</text></g></g><g id="Group"><path d=" M 163.323 80.863 C 163.323 74.823 169.284 69.92 176.625 69.92 C 183.966 69.92 189.927 74.823 189.927 80.863 C 189.927 86.902 183.966 91.805 176.625 91.805 C 169.284 91.805 163.323 86.902 163.323 80.863 Z " fill="rgb(158,154,200)"/><g transform="matrix(1.26,0,0,1.037,162.467,72.891)"><text transform="matrix(1,0,0,1,0,10.688)" style="font-family:&quot;Open Sans&quot;;font-weight:400;font-size:10px;font-style:normal;fill:#000000;stroke:none;">khoy</text></g></g><g id="Group"><path d=" M 185.916 60.696 C 185.916 43.754 202.635 30 223.229 30 C 243.822 30 260.541 43.754 260.541 60.696 C 260.541 77.637 243.822 91.391 223.229 91.391 C 202.635 91.391 185.916 77.637 185.916 60.696 Z " fill="rgb(158,154,200)"/><g transform="matrix(1.26,0,0,1.037,205.262,52.724)"><text transform="matrix(1,0,0,1,0,10.688)" style="font-family:&quot;Open Sans&quot;;font-weight:400;font-size:10px;font-style:normal;fill:#000000;stroke:none;">Tabriz</text></g></g><g id="Group"><path d=" M 250.532 187.402 C 250.532 183.153 254.725 179.703 259.89 179.703 C 265.055 179.703 269.248 183.153 269.248 187.402 C 269.248 191.651 265.055 195.1 259.89 195.1 C 254.725 195.1 250.532 191.651 250.532 187.402 Z " fill="rgb(158,154,200)"/><g transform="matrix(1.26,0,0,1.037,237.83,179.43)"><text transform="matrix(1,0,0,1,0,10.688)" style="font-family:&quot;Open Sans&quot;;font-weight:400;font-size:10px;font-style:normal;fill:#000000;stroke:none;">Mianeh</text></g></g><g id="Group"><path d=" M 126.998 236.767 C 126.998 234.848 128.892 233.289 131.226 233.289 C 133.559 233.289 135.453 234.848 135.453 236.767 C 135.453 238.687 133.559 240.245 131.226 240.245 C 128.892 240.245 126.998 238.687 126.998 236.767 Z " fill="rgb(158,154,200)"/><g transform="matrix(1.26,0,0,1.037,118.502,228.795)"><text transform="matrix(1,0,0,1,0.781,10.688)" style="font-family:&quot;Open Sans&quot;;font-weight:400;font-size:10px;font-style:normal;fill:#000000;stroke:none;">Jolfa</text></g></g><g id="Group"><path d=" M 237.928 225.362 C 237.928 215.49 247.67 207.476 259.67 207.476 C 271.67 207.476 281.412 215.49 281.412 225.362 C 281.412 235.234 271.67 243.248 259.67 243.248 C 247.67 243.248 237.928 235.234 237.928 225.362 Z " fill="rgb(188,189,220)"/><g transform="matrix(1.26,0,0,1.037,238.663,217.39)"><text transform="matrix(1,0,0,1,0,10.688)" style="font-family:&quot;Open Sans&quot;;font-weight:400;font-size:10px;font-style:normal;fill:#000000;stroke:none;">Ardebil</text></g></g><g id="Group"><path d=" M 108.949 239.433 C 108.949 235.716 112.617 232.698 117.136 232.698 C 121.654 232.698 125.322 235.716 125.322 239.433 C 125.322 243.15 121.654 246.168 117.136 246.168 C 112.617 246.168 108.949 243.15 108.949 239.433 Z " fill="rgb(188,189,220)"/><g transform="matrix(1.26,0,0,1.037,75.303,231.461)"><text transform="matrix(1,0,0,1,0,10.688)" style="font-family:&quot;Open Sans&quot;;font-weight:400;font-size:10px;font-style:normal;fill:#000000;stroke:none;">Meshginshahr</text></g></g><g id="Group"><path d=" M 119.365 81.45 C 119.365 78.77 122.01 76.594 125.268 76.594 C 128.527 76.594 131.172 78.77 131.172 81.45 C 131.172 84.131 128.527 86.307 125.268 86.307 C 122.01 86.307 119.365 84.131 119.365 81.45 Z " fill="rgb(188,189,220)"/><g transform="matrix(1.26,0,0,1.037,100.16,73.479)"><text transform="matrix(1,0,0,1,0,10.688)" style="font-family:&quot;Open Sans&quot;;font-weight:400;font-size:10px;font-style:normal;fill:#000000;stroke:none;">Khalkhal</text></g></g><g id="Group"><path d=" M 79.761 227.11 C 79.761 222.971 83.846 219.611 88.877 219.611 C 93.908 219.611 97.993 222.971 97.993 227.11 C 97.993 231.249 93.908 234.61 88.877 234.61 C 83.846 234.61 79.761 231.249 79.761 227.11 Z " fill="rgb(188,189,220)"/><g transform="matrix(1.26,0,0,1.037,61.267,219.138)"><text transform="matrix(1,0,0,1,0,10.688)" style="font-family:&quot;Open Sans&quot;;font-weight:400;font-size:10px;font-style:normal;fill:#000000;stroke:none;">Parsabad</text></g></g><g id="Group"><path d=" M 59.663 104.8 C 59.663 98.193 66.183 92.828 74.215 92.828 C 82.247 92.828 88.768 98.193 88.768 104.8 C 88.768 111.408 82.247 116.772 74.215 116.772 C 66.183 116.772 59.663 111.408 59.663 104.8 Z " fill="rgb(218,218,235)"/><g transform="matrix(1.26,0,0,1.037,58.965,96.828)"><text transform="matrix(1,0,0,1,0,10.688)" style="font-family:&quot;Open Sans&quot;;font-weight:400;font-size:10px;font-style:normal;fill:#000000;stroke:none;">Amol</text></g></g><g id="Group"><path d=" M 266.98 199.284 C 266.98 192.498 273.677 186.988 281.926 186.988 C 290.175 186.988 296.873 192.498 296.873 199.284 C 296.873 206.071 290.175 211.58 281.926 211.58 C 273.677 211.58 266.98 206.071 266.98 199.284 Z " fill="rgb(218,218,235)"/><g transform="matrix(1.26,0,0,1.037,265.076,191.312)"><text transform="matrix(1,0,0,1,0,10.688)" style="font-family:&quot;Open Sans&quot;;font-weight:400;font-size:10px;font-style:normal;fill:#000000;stroke:none;">Babol</text></g></g><g id="Group"><path d=" M 28.977 188.38 C 28.977 180.836 36.423 174.71 45.594 174.71 C 54.765 174.71 62.211 180.836 62.211 188.38 C 62.211 195.925 54.765 202.05 45.594 202.05 C 36.423 202.05 28.977 195.925 28.977 188.38 Z " fill="rgb(218,218,235)"/><g transform="matrix(1.26,0,0,1.037,34.464,180.408)"><text transform="matrix(1,0,0,1,0,10.688)" style="font-family:&quot;Open Sans&quot;;font-weight:400;font-size:10px;font-style:normal;fill:#000000;stroke:none;">Sari</text></g></g><g id="Group"><path d=" M 288.787 180.613 C 288.787 174.483 294.837 169.506 302.289 169.506 C 309.741 169.506 315.791 174.483 315.791 180.613 C 315.791 186.744 309.741 191.721 302.289 191.721 C 294.837 191.721 288.787 186.744 288.787 180.613 Z " fill="rgb(218,218,235)"/><g transform="matrix(1.26,0,0,1.037,271.528,172.642)"><text transform="matrix(1,0,0,1,0,10.688)" style="font-family:&quot;Open Sans&quot;;font-weight:400;font-size:10px;font-style:normal;fill:#000000;stroke:none;">Qaemshar</text></g></g><g id="Group"><path d=" M 54.075 132.623 C 54.075 129.162 57.49 126.353 61.696 126.353 C 65.902 126.353 69.317 129.162 69.317 132.623 C 69.317 136.083 65.902 138.892 61.696 138.892 C 57.49 138.892 54.075 136.083 54.075 132.623 Z " fill="rgb(218,218,235)"/><g transform="matrix(1.26,0,0,1.037,41.88,124.651)"><text transform="matrix(1,0,0,1,0,10.688)" style="font-family:&quot;Open Sans&quot;;font-weight:400;font-size:10px;font-style:normal;fill:#000000;stroke:none;">Chalus</text></g></g><g id="Group"><path d=" M 146.594 79.091 C 146.594 75.794 149.847 73.117 153.855 73.117 C 157.862 73.117 161.116 75.794 161.116 79.091 C 161.116 82.387 157.862 85.064 153.855 85.064 C 149.847 85.064 146.594 82.387 146.594 79.091 Z " fill="rgb(99,99,99)"/><g transform="matrix(1.26,0,0,1.037,125.047,71.119)"><text transform="matrix(1,0,0,1,0,10.688)" style="font-family:&quot;Open Sans&quot;;font-weight:400;font-size:10px;font-style:normal;fill:#000000;stroke:none;">Esfarayen</text></g></g><g id="Group"><path d=" M 259.96 124.383 C 259.96 120.497 263.796 117.341 268.52 117.341 C 273.245 117.341 277.08 120.497 277.08 124.383 C 277.08 128.27 273.245 131.425 268.52 131.425 C 263.796 131.425 259.96 128.27 259.96 124.383 Z " fill="rgb(99,99,99)"/><g transform="matrix(1.26,0,0,1.037,246.497,116.412)"><text transform="matrix(1,0,0,1,0,10.688)" style="font-family:&quot;Open Sans&quot;;font-weight:400;font-size:10px;font-style:normal;fill:#000000;stroke:none;">Shirvan</text></g></g><g id="Group"><path d=" M 146.154 60.463 C 146.154 53.982 152.55 48.72 160.428 48.72 C 168.305 48.72 174.701 53.982 174.701 60.463 C 174.701 66.943 168.305 72.205 160.428 72.205 C 152.55 72.205 146.154 66.943 146.154 60.463 Z " fill="rgb(99,99,99)"/><g transform="matrix(1.26,0,0,1.037,133.029,52.491)"><text transform="matrix(1,0,0,1,0,10.688)" style="font-family:&quot;Open Sans&quot;;font-weight:400;font-size:10px;font-style:normal;fill:#000000;stroke:none;">Bojnoord</text></g></g><g id="Group"><path d=" M 105.694 251.899 C 105.694 249.219 108.339 247.042 111.597 247.042 C 114.855 247.042 117.5 249.219 117.5 251.899 C 117.5 254.579 114.855 256.755 111.597 256.755 C 108.339 256.755 105.694 254.579 105.694 251.899 Z " fill="rgb(150,150,150)"/><g transform="matrix(1.26,0,0,1.037,94.233,243.927)"><text transform="matrix(1,0,0,1,0,10.688)" style="font-family:&quot;Open Sans&quot;;font-weight:400;font-size:10px;font-style:normal;fill:#000000;stroke:none;">Tabas</text></g></g><g id="Group"><path d=" M 77.455 247.301 C 77.455 241.186 83.49 236.221 90.924 236.221 C 98.357 236.221 104.392 241.186 104.392 247.301 C 104.392 253.416 98.357 258.381 90.924 258.381 C 83.49 258.381 77.455 253.416 77.455 247.301 Z " fill="rgb(150,150,150)"/><g transform="matrix(1.26,0,0,1.037,69.846,239.329)"><text transform="matrix(1,0,0,1,0,10.688)" style="font-family:&quot;Open Sans&quot;;font-weight:400;font-size:10px;font-style:normal;fill:#000000;stroke:none;">Birjand</text></g></g><g id="Group"><path d=" M 56.227 222.002 C 56.227 216.923 61.239 212.8 67.412 212.8 C 73.586 212.8 78.597 216.923 78.597 222.002 C 78.597 227.08 73.586 231.203 67.412 231.203 C 61.239 231.203 56.227 227.08 56.227 222.002 Z " fill="rgb(189,189,189)"/><g transform="matrix(1.26,0,0,1.037,47.956,208.846)"><text transform="matrix(1,0,0,1,0,10.688)" style="font-family:&quot;Open Sans&quot;;font-weight:400;font-size:10px;font-style:normal;fill:#000000;stroke:none;">Torbat</text></g><g transform="matrix(1.26,0,0,1.037,33.94,219.214)"><text transform="matrix(1,0,0,1,0,10.688)" style="font-family:&quot;Open Sans&quot;;font-weight:400;font-size:10px;font-style:normal;fill:#000000;stroke:none;">Heydariyeh</text></g></g><g id="Group"><path d=" M 128.05 71.24 C 128.05 66.905 132.328 63.386 137.597 63.386 C 142.866 63.386 147.144 66.905 147.144 71.24 C 147.144 75.574 142.866 79.094 137.597 79.094 C 132.328 79.094 128.05 75.574 128.05 71.24 Z " fill="rgb(189,189,189)"/><g transform="matrix(1.26,0,0,1.037,111.411,63.268)"><text transform="matrix(1,0,0,1,0,10.688)" style="font-family:&quot;Open Sans&quot;;font-weight:400;font-size:10px;font-style:normal;fill:#000000;stroke:none;">Kashmar</text></g></g><g id="Group"><path d=" M 31.807 116.889 C 31.807 110.198 38.41 104.766 46.543 104.766 C 54.676 104.766 61.279 110.198 61.279 116.889 C 61.279 123.58 54.676 129.012 46.543 129.012 C 38.41 129.012 31.807 123.58 31.807 116.889 Z " fill="rgb(189,189,189)"/><g transform="matrix(1.26,0,0,1.037,20,108.917)"><text transform="matrix(1,0,0,1,0,10.688)" style="font-family:&quot;Open Sans&quot;;font-weight:400;font-size:10px;font-style:normal;fill:#000000;stroke:none;">Sabzevar</text></g></g><g id="Group"><path d=" M 244.388 94.215 C 244.388 87.241 251.271 81.579 259.748 81.579 C 268.225 81.579 275.107 87.241 275.107 94.215 C 275.107 101.188 268.225 106.85 259.748 106.85 C 251.271 106.85 244.388 101.188 244.388 94.215 Z " fill="rgb(189,189,189)"/><g transform="matrix(1.26,0,0,1.037,223.86,86.243)"><text transform="matrix(1,0,0,1,0,10.688)" style="font-family:&quot;Open Sans&quot;;font-weight:400;font-size:10px;font-style:normal;fill:#000000;stroke:none;">Neyshaboor</text></g></g><g id="Group"><path d=" M 276.447 102.314 C 276.447 78.805 299.647 59.719 328.223 59.719 C 356.8 59.719 380 78.805 380 102.314 C 380 125.822 356.8 144.908 328.223 144.908 C 299.647 144.908 276.447 125.822 276.447 102.314 Z " fill="rgb(189,189,189)"/><g transform="matrix(1.26,0,0,1.037,300.921,94.342)"><text transform="matrix(1,0,0,1,0,10.688)" style="font-family:&quot;Open Sans&quot;;font-weight:400;font-size:10px;font-style:normal;fill:#000000;stroke:none;">Mashhad</text></g></g><g id="Group"><path d=" M 100.156 75.044 C 100.156 70.73 104.412 67.228 109.656 67.228 C 114.899 67.228 119.156 70.73 119.156 75.044 C 119.156 79.357 114.899 82.859 109.656 82.859 C 104.412 82.859 100.156 79.357 100.156 75.044 Z " fill="rgb(189,189,189)"/><g transform="matrix(1.26,0,0,1.037,86.639,67.072)"><text transform="matrix(1,0,0,1,0,10.688)" style="font-family:&quot;Open Sans&quot;;font-weight:400;font-size:10px;font-style:normal;fill:#000000;stroke:none;">Quchan</text></g></g></g></g></svg>